<?xml version="1.0" encoding="UTF-8"?>
<svg width="374px" height="374px" viewBox="0 0 374 374" version="1.1" xmlns="http://www.w3.org/2000/svg" xmlns:xlink="http://www.w3.org/1999/xlink">
    <!-- Generator: Sketch 46.2 (44496) - http://www.bohemiancoding.com/sketch -->
    <title>Artboard</title>
    <desc>Created with Sketch.</desc>
    <defs>
        <path d="M161.361429,23.2432217 L9.54105594,23.2432217 C4.27063039,23.2432217 0.00335952674,18.9786385 0.00335952674,13.7115724 C0.00335952674,8.44786594 4.27063039,4.17992317 9.54105594,4.17992317 C9.54105594,4.17992317 43.2142643,0.449504678 85.4267178,0.449504678 C127.646562,0.449504678 161.320443,4.17992317 161.320443,4.17992317 C166.586837,4.17992317 170.858139,8.44786594 170.858139,13.7115724 C170.858139,18.9618408 166.615729,23.2183612 161.361429,23.2432217 L161.361429,23.2432217 Z" id="path-1"></path>
        <path d="M204.591147,225.309348 C204.591147,225.309348 184.685951,234.717367 103.571522,234.717367 C22.4564205,234.717367 3.13175083,225.309348 3.13175083,225.309348 C1.52724086,225.309348 0.229119724,224.012571 0.229119724,222.408733 L0.229119724,6.90853079 C0.229119724,5.30469272 1.52724086,4.00724349 3.13175083,4.00724349 C3.13175083,4.00724349 42.6108933,0.360141266 103.571522,0.360141266 C164.531478,0.360141266 204.591147,4.00724349 204.591147,4.00724349 C206.196329,4.00724349 207.49445,5.30469272 207.49445,6.90853079 L207.49445,222.408733 C207.49445,224.012571 206.196329,225.309348 204.591147,225.309348 Z" id="path-3"></path>
        <path d="M10.4414091,0.262043086 L211.569556,0.262043086 C217.134276,0.262043086 221.646792,4.77052797 221.646792,10.3365919 C221.646792,15.893921 217.134276,20.4030778 211.569556,20.4030778 L10.4414091,20.4030778 C4.87198568,20.4030778 0.360141266,15.893921 0.360141266,10.3365919 C0.360141266,4.77052797 4.87198568,0.262043086 10.4414091,0.262043086 L10.4414091,0.262043086 Z" id="path-5"></path>
        <path d="M10.4414091,0.60941815 L211.569556,0.60941815 C217.134276,0.60941815 221.646792,5.11857494 221.646792,10.6799355 C221.646792,16.2372646 217.134276,20.7464214 211.569556,20.7464214 L10.4414091,20.7464214 C4.87198568,20.7464214 0.360141266,16.2372646 0.360141266,10.6799355 C0.360141266,5.11857494 4.87198568,0.60941815 10.4414091,0.60941815 Z" id="path-7"></path>
        <path d="M8.75425478,0.525429982 L47.6528711,0.525429982 C52.189576,0.525429982 55.859523,4.19739271 55.859523,8.72737856 C55.859523,13.2607239 52.189576,16.9367181 47.6528711,16.9367181 L8.75425478,16.9367181 C4.21687796,16.9367181 0.542899521,13.2607239 0.542899521,8.72737856 C0.542899521,4.19739271 4.21687796,0.525429982 8.75425478,0.525429982 Z" id="path-9"></path>
    </defs>
    <g id="Page-1" stroke="none" stroke-width="1" fill="none" fill-rule="evenodd">
        <g id="Artboard">
            <rect id="produkte_content_third_keg" x="66" y="64" width="252" height="252"></rect>
            <g id="Clipped" transform="translate(106.743750, 67.592088)">
                <mask id="mask-2" fill="white">
                    <use xlink:href="#path-1"></use>
                </mask>
                <g id="Shape"></g>
                <rect id="Rectangle-path" fill="#E0E6EE" fill-rule="nonzero" mask="url(#mask-2)" x="-3.13443845" y="-2.68762139" width="177.129703" height="29.0679692"></rect>
            </g>
            <g id="Clipped" transform="translate(88.602306, 77.670668)">
                <mask id="mask-4" fill="white">
                    <use xlink:href="#path-3"></use>
                </mask>
                <g id="Shape"></g>
                <rect id="Rectangle-path" fill="#9EB1C5" fill-rule="nonzero" mask="url(#mask-4)" x="-2.90867825" y="-2.7769848" width="213.540254" height="240.631478"></rect>
            </g>
            <g id="Clipped" transform="translate(81.211347, 144.861203)">
                <mask id="mask-6" fill="white">
                    <use xlink:href="#path-5"></use>
                </mask>
                <g id="Shape"></g>
                <rect id="Rectangle-path" fill="#E0E6EE" fill-rule="nonzero" mask="url(#mask-6)" x="-2.7769848" y="-2.87575489" width="227.560903" height="26.4159587"></rect>
            </g>
            <g id="Clipped" transform="translate(81.211347, 210.036022)">
                <mask id="mask-8" fill="white">
                    <use xlink:href="#path-7"></use>
                </mask>
                <g id="Shape"></g>
                <rect id="Rectangle-path" fill="#E0E6EE" fill-rule="nonzero" mask="url(#mask-8)" x="-2.7769848" y="-2.52770792" width="227.560903" height="26.4119273"></rect>
            </g>
            <g id="Clipped" transform="translate(159.824273, 263.788450)">
                <mask id="mask-10" fill="white">
                    <use xlink:href="#path-9"></use>
                </mask>
                <g id="Shape"></g>
                <rect id="Rectangle-path" fill="#E0E6EE" fill-rule="nonzero" mask="url(#mask-10)" x="-2.59422655" y="-2.61169609" width="61.5915475" height="22.6862122"></rect>
            </g>
        </g>
    </g>
</svg>